<?xml version="1.0" encoding="utf-8"?>
<!-- Generator: Adobe Illustrator 22.1.0, SVG Export Plug-In . SVG Version: 6.00 Build 0)  -->
<svg version="1.1" id="Layer_1" xmlns="http://www.w3.org/2000/svg" xmlns:xlink="http://www.w3.org/1999/xlink" x="0px" y="0px"
	 viewBox="0 0 336 336" style="enable-background:new 0 0 336 336;" xml:space="preserve">
<style type="text/css">
	.st0{fill:#FFFFFF;}
</style>
<path class="st0" d="M336,167.9c0,92.8-75.2,168.1-168.1,168.1h-3.6C71.6,334.1-2.1,257.3-0.2,164.5S78.6-2,171.4-0.1
	c88.2,1.8,160,71.6,164.4,159.7C336,162.3,336,165.2,336,167.9z M199.1,97.9h23.4V64.2h-33.4c-33.7,0-43.3,27-43.3,44v31.7h-32.5
	v38.2h32.5v93.6h38.3v-93.6H216l4.9-38.3h-36.7v-27.1c-0.1-8,6.2-14.6,14.2-14.7h0.1L199.1,97.9L199.1,97.9z"/>
</svg>
