<?xml version="1.0" encoding="utf-8"?>
<!-- Generator: Adobe Illustrator 22.1.0, SVG Export Plug-In . SVG Version: 6.00 Build 0)  -->
<svg version="1.1" id="Layer_1" xmlns="http://www.w3.org/2000/svg" xmlns:xlink="http://www.w3.org/1999/xlink" x="0px" y="0px"
	 viewBox="0 0 336 336" style="enable-background:new 0 0 336 336;" xml:space="preserve">
<style type="text/css">
	.st0{fill:#FFFFFF;}
</style>
<path class="st0" d="M336,168.1c0,92.8-75.2,168.1-168.1,168.1C75.1,336.2-0.2,261-0.2,168.1S75.1,0,167.9,0h0.1
	c92.8,0,168,75.2,168,167.9V168.1L336,168.1z M261,130c-0.8-5.1-1.4-10.4-2.6-15.4c-4.7-21.8-23.6-37.7-45.9-38.6
	c-1.8-0.1-3.6-0.4-5.4-0.8h-78.2c-5.5,0.9-11.2,1.4-16.7,3c-20.5,5.6-35.1,23.7-36.2,44.9c-0.1,1.9-0.4,3.9-0.8,5.8v78.2
	c0.8,6.1,2,12.1,3.6,18.1c5.9,20,23.9,34.1,44.8,34.9c2.2,0.2,4.3,0.5,6.5,0.9h76.2c5.3-0.8,10.7-1.4,15.8-2.6
	c21.6-5,37.1-23.8,38.1-45.9c0.1-2.1,0.4-4.3,0.9-6.3V130H261z"/>
<path class="st0" d="M165.3,137.2c-16.9,0.1-30.5,14-30.3,30.8c0.1,16.9,14,30.5,30.8,30.3s30.5-14,30.3-30.8
	c-0.1-16.7-13.6-30.2-30.3-30.3H165.3z"/>
<path class="st0" d="M207.9,92.8c-27-0.4-54.2-0.4-81.2,0c-19,0.3-31.4,10.9-33.6,29.8c-1.8,14.8-1.2,72.1-0.8,85.7
	c0.5,21,14,34.7,34.9,34.9c26.9,0.5,53.8,0.5,80.7,0c20.7-0.3,34.4-13.8,34.7-34.5c0.5-27,0.5-54.2,0-81.2
	C242.1,106.6,228.6,93.1,207.9,92.8L207.9,92.8z M167.4,215.8c-26.4,0.1-47.9-21.3-48-47.7s21.3-47.9,47.7-48s47.9,21.3,48,47.7v0.1
	c0.1,26.4-21.2,47.8-47.6,47.8C167.5,215.8,167.5,215.8,167.4,215.8L167.4,215.8z M216.8,129.7c-6.3-0.2-11.2-5.3-11.2-11.6
	c0.1-6.3,5.3-11.2,11.6-11.1s11.2,5.3,11.1,11.6C228.2,124.8,223,129.8,216.8,129.7L216.8,129.7z"/>
</svg>
