<svg id="Layer_1" data-name="Layer 1" xmlns="http://www.w3.org/2000/svg" width="5.6in" height="4.1in" viewBox="0 0 402.8 297.2"><title>logo reveresed</title><path d="M61.5,131.6" transform="translate(-11.6 -14.5)" fill="none" stroke="#92278f" stroke-miterlimit="10" stroke-width="6.4"/><path d="M136.5,54.8h1.6v7.6h11.2V54.8h1.6V72h-1.6V63.7H138.1v8.2h-1.5Z" transform="translate(-11.6 -14.5)" fill="#fff"/><path d="M166.3,54.9h1.4L175.4,72h-1.7l-2.2-5.1h-9.1L160.1,72h-1.6Zm2.8,6.5L167,56.6h0l-2.1,4.7L163,65.6h7.9Z" transform="translate(-11.6 -14.5)" fill="#fff"/><path d="M183.2,54.9h1.5V72.1h-1.6Z" transform="translate(-11.6 -14.5)" fill="#fff"/><path d="M194.5,55h4.9a9.5,9.5,0,0,1,5.1,1,4.2,4.2,0,0,1,2.2,3.7,4.1,4.1,0,0,1-2,3.6,5.6,5.6,0,0,1-3,1l6.2,7.8H206l-6-7.6h-4v7.7h-1.6Zm5.4,8.2a6.2,6.2,0,0,0,4-1,2.9,2.9,0,0,0,1.2-2.4,3,3,0,0,0-1.5-2.7,8,8,0,0,0-4.3-.8H196v6.9Z" transform="translate(-11.6 -14.5)" fill="#fff"/><path d="M227.3,55.1h4.8a9.7,9.7,0,0,1,4.7.8,4.2,4.2,0,0,1,2.1,3.6,3.8,3.8,0,0,1-3.1,3.7h0c2.3.4,3.8,1.9,3.8,4.1a4.2,4.2,0,0,1-2,3.7c-1.1.8-2.6,1.1-5.6,1.1h-4.7Zm5.8,7.7c2.3,0,4.2-1,4.2-3.2a2.5,2.5,0,0,0-1.5-2.5c-.8-.5-1.8-.7-3.8-.7h-3.1v6.4Zm-.9,8.1c2.5,0,3.7-.3,4.5-.9a3.1,3.1,0,0,0,1.4-2.6c0-2.1-1.9-3.4-4.8-3.4h-4.5v6.9Z" transform="translate(-11.6 -14.5)" fill="#fff"/><path d="M259.9,55.2h1.8l-7.2,9.3v7.8h-1.6V64.5l-7.1-9.4h1.8l3,3.9,3.1,4.2h.1l3.1-4.1Z" transform="translate(-11.6 -14.5)" fill="#fff"/><polyline points="332.9 47.5 359.4 4.7 8.5 4.7 55.9 81.4" fill="none" stroke="#fff" stroke-linecap="round" stroke-miterlimit="10" stroke-width="9.44"/><polyline points="114.6 176.2 183.9 288.2 275.6 140.1" fill="none" stroke="#fff" stroke-linecap="round" stroke-miterlimit="10" stroke-width="9.44"/><path d="M348.7,102.1Z" transform="translate(-11.6 -14.5)" fill="#fff"/><path d="M225.3,293.7Z" transform="translate(-11.6 -14.5)" fill="#fff"/><circle cx="257.5" cy="78.9" r="4.4" fill="#fff"/><circle cx="109" cy="86.2" r="5.1" fill="#fff"/><path d="M376.5,108.8l-3.8,3.8-1.7,1.9Z" transform="translate(-11.6 -14.5)" fill="#fff"/><path d="M414.4,85c-3.1.4-6.1.7-9.1,1.3-9.2,1.5-17,4.8-23.6,11.2s-12.3,12.4-18.6,18.5a31.4,31.4,0,0,1-14.5,8.2c-3.1.7-6.4-.1-7.6-2.4,1.9-1.5,5-3.1,6.8-4.6,5.4-4.6,10.4-9.4,12.1-16,1.2-4.5-.7-6.8-5.4-7.4a13.8,13.8,0,0,0-12.4,4.6c-5.9,6.2-10,13-10.8,21.6-7.4,3.8-11.2,6.6-19.6,8.4-4,.8-8.4,2-10.4-1.6s-.5-10.3,1.9-13.5c4.2-5.5,9.8-7.7,15.7-8.9,1.3-.3,3.8.1,4.4-1.2s.1-.7.1-1.1.5-1.4-2.8-1.8c-6.7-.8-6.7-.8-9.7-.1-7.5,1.6-13.4,6.2-18.9,11.1s-6.7,7.2-13.5,12.9c-2,1.7-9.4,7.3-11.6,8.3s-1.1-.2-1-.5c2.1-8,3.8-15,5.6-22.7a1.1,1.1,0,0,0-.3-1.1,7.8,7.8,0,0,0-7.2-2.4c-1.1.1-2.5,1.6-3.1,2.7-2.8,5.8-4.4,12-7.7,17.6s-4.2,7.4-8.2,11.2a8.6,8.6,0,0,1-1.8,1.4c-3,2-5.2.6-4.7-3.1a22.1,22.1,0,0,1,.5-2.9c.8-4.5,2.1-8.9,2.8-13.4a4.4,4.4,0,0,0-1.9-4.1c-2.5-1.6-5.6-2.2-8.4-.4s-6.2,4.2-9.2,6.3a21.2,21.2,0,0,0-2.5,2c.4-2.1.7-3.4,1-4.7s-.7-3.7-3.8-4.6-4.5-1.2-5.7,1.5-2,4.4-2.9,6.6c-3.5,8.2-7.2,16.5-13.5,23.5-1.5,1.7-1.8,2.5-4.8,4a4,4,0,0,1-2.5.9,1.4,1.4,0,0,1-1.2-1.4c.3-6.3,4-10.7,6.5-16.3a2.3,2.3,0,0,0-.4-2.4c-2.8-3.2-7-3.3-9.2-.1-5.1,7.8-12.2,14.2-20.2,19.7a23.1,23.1,0,0,1-9.2,3.4c-2.7.5-4.4-.9-4-3.3a28.1,28.1,0,0,1,3-9c4.7-7.9,11.2-13,21.7-12.7h.7c1.6-.3,2.2-2.5.8-3.3l-.3-.2c-1.9-1.8-5.7-2.3-8.5-2.2-6.4.2-12.2,3-17.5,6.1-9.2,5.4-18.3,11.1-27.8,16.4-4.9,2.8-9.6,5.8-14.5,8.6l-.6-.5c.8-2.6,1.5-5.2,2.5-7.7,2.5-6.7,4.2-13.6,8.7-19.5a3.4,3.4,0,0,0,.3-2.8c-1.5-3.3-7.3-4.6-10-2.2-4.4,3.9-9.9,5.5-15.8,5.9-10.6.8-21.1-.9-31.5-3l-19.5-4.3H37.9a35.4,35.4,0,0,0-16.9,4,4.7,4.7,0,0,0-.9,1.2,61.6,61.6,0,0,1,10.6-.7c9.8.2,19,3,28.4,5a208,208,0,0,0,23.4,4c7,.8,14.1.7,21.3.8l-1.1,3.1c-2.2,6.2-4.7,12.3-6.6,18.6-1,3.3-3,5.1-6.4,6.5-13,5.5-26.2,10.7-37.8,18.3-14.1,9.3-21.3,21.3-18.6,37.2,1.7,10.3,13.3,18.2,26.1,17.2,6.4-.4,11-3.1,15.3-6.1a44.5,44.5,0,0,0,16.7-22.3c4.3-12.5,7.8-25.2,11.2-37.9a7.8,7.8,0,0,1,4.5-5.4c6.9-3.3,13.5-7.1,20-10.9s10.2-6.2,15.5-9.6c0,0,1.8-.6.1,1.6-5.1,6.3-.9,14.5,6.5,15.9s19.3-3.3,25-7.8a39.5,39.5,0,0,1,3.7-2.5c1.9,4.5,5.5,6.6,10.4,6.8s8.6-2.3,12-4.9c4.7,4,8.9,4.1,11.2-1.3s3.6-11.1,8.2-17.4c2.1-2.9,8.4-9.3,12.5-10.9,1.6-.6,1.3.7,1.3.7s-1.2,3.3-1.6,4.7a32.4,32.4,0,0,0-1.3,9.7c0,5,4.2,8.7,9.9,8.8s11-3.2,14.9-7.4l3.3-3.8c4.5,8.5,10.3,5.7,15.4,2.9,3.5-1.8,5.7-4.8,8.8-7.3s5.4-5.4,8.1-8.1c.7-.7,2-1.1,1.9-.1s-.1,3.4,0,4.1c.3,3.1,2.3,8.2,5.5,9.4s2.9,1.2,6.2,1.4c8,.3,16-4.1,21.2-6.2s5.1-3.2,8.7-4.7c.5,1.2,1.9,2,2.8,2.7a9.9,9.9,0,0,0,4.5,2.1c8.5,1.6,13.4-.7,30.9-18.2C385.9,98.6,387.8,93.1,414.4,85Zm-69.8,19.8c1.4-1.5,2.9-2.5,4-2.6h0a1.6,1.6,0,0,1,1.2.2c1,.9.3,3.3-1.5,5.5s-4.2,3.2-5.2,2.3S342.8,106.9,344.6,104.8ZM90.2,179.5c-3.9,10-7.5,20.2-12.4,29.9-3.7,7.4-10.2,13.3-19.4,17l-2.2.7c-6.2,1.6-8.5.5-10.1-4.6-4-12.6.6-23.2,10-32.1s23.6-14,36.8-19.7C92,173.7,91.2,176.6,90.2,179.5Z" transform="translate(-11.6 -14.5)" fill="#fff"/></svg>